<svg xmlns="http://www.w3.org/2000/svg" viewBox="0 0 60 170" width="60" height="170">
  <defs>
    <linearGradient id="steel" x1="0" y1="0" x2="1" y2="0">
      <stop offset="0" stop-color="#c9dcff"/>
      <stop offset="0.5" stop-color="#4a5a8c"/>
      <stop offset="1" stop-color="#141a33"/>
    </linearGradient>
    <linearGradient id="haft" x1="0" y1="0" x2="1" y2="0">
      <stop offset="0" stop-color="#5a6aa0"/>
      <stop offset="1" stop-color="#0b0f22"/>
    </linearGradient>
    <filter id="glow" x="-200%" y="-200%" width="500%" height="500%"><feGaussianBlur stdDeviation="2.2"/></filter>
  </defs>

  <path d="M30 44 V164" stroke="#04050b" stroke-width="7" stroke-linecap="round"/>
  <path d="M30 44 V164" stroke="url(#haft)" stroke-width="3.4" stroke-linecap="round"/>
  <path d="M30 2 L39 34 L30 48 L21 34 Z" fill="url(#steel)"/>
  <path d="M30 6 V44" stroke="#e4f1ff" stroke-width="0.8"/>
  <!-- torn pennant -->
  <path d="M32 54 C44 52 52 58 56 54 L52 66 L56 76 C48 74 42 80 32 78 Z" fill="#3b4fe0" opacity="0.75"/>
  <path d="M32 54 C44 52 52 58 56 54" fill="none" stroke="#8fbcff" stroke-width="1"/>

  <!-- where it meets the ground -->
  <ellipse cx="30" cy="164" rx="16" ry="3.5" fill="#000" opacity="0.7"/>
</svg>
